<svg width="330" height="330" viewBox="0 0 330 330" fill="none" xmlns="http://www.w3.org/2000/svg">
<path d="M25.7236 119.842V147.747H36.7123C38.7943 147.747 40.7221 147.477 42.4957 146.937C44.3464 146.396 45.9658 145.586 47.3538 144.505C48.7419 143.347 49.8215 141.881 50.5926 140.105C51.3637 138.33 51.7493 136.207 51.7493 133.737C51.7493 131.267 51.3637 129.182 50.5926 127.484C49.8215 125.709 48.7419 124.281 47.3538 123.2C45.9658 122.042 44.3464 121.193 42.4957 120.653C40.7221 120.112 38.7943 119.842 36.7123 119.842H25.7236ZM64.4729 134.547C64.4729 139.333 63.5476 143.232 61.6969 146.242C59.8462 149.253 57.6484 151.607 55.1037 153.305C52.6361 154.926 50.0914 156.046 47.4695 156.663C44.9248 157.281 42.8813 157.589 41.339 157.589H25.7236V191.053H13V110H41.339C44.5778 110 47.5852 110.579 50.3613 111.737C53.2144 112.895 55.6821 114.554 57.7641 116.716C59.8462 118.8 61.4655 121.347 62.6222 124.358C63.856 127.368 64.4729 130.765 64.4729 134.547Z" fill="#FFF500"/>
<path d="M79.8281 161.179C79.8281 163.495 80.2522 165.656 81.1004 167.663C81.9487 169.593 83.1054 171.291 84.5705 172.758C86.1128 174.225 87.8478 175.382 89.7756 176.232C91.7806 177.081 93.8626 177.505 96.0218 177.505C98.2581 177.505 100.34 177.081 102.268 176.232C104.273 175.382 106.008 174.225 107.473 172.758C109.015 171.291 110.211 169.554 111.059 167.547C111.984 165.54 112.447 163.379 112.447 161.063C112.447 158.825 111.984 156.74 111.059 154.811C110.211 152.804 109.054 151.067 107.589 149.6C106.124 148.133 104.389 147.014 102.384 146.242C100.456 145.393 98.3737 144.968 96.1375 144.968C93.9012 144.968 91.7806 145.393 89.7756 146.242C87.8478 147.091 86.1128 148.249 84.5705 149.716C83.1054 151.182 81.9487 152.919 81.1004 154.926C80.2522 156.856 79.8281 158.94 79.8281 161.179ZM67.2201 159.789C67.2201 155.93 67.9527 152.34 69.4178 149.021C70.883 145.702 72.8493 142.807 75.317 140.337C77.7846 137.789 80.6763 135.821 83.9922 134.432C87.3851 132.965 90.9709 132.232 94.7494 132.232C99.0678 132.232 102.808 133.351 105.969 135.589L109.902 123.316H122.51L114.066 140.105C116.611 142.575 118.616 145.509 120.081 148.905C121.546 152.225 122.279 155.853 122.279 159.789C122.279 163.263 121.662 166.544 120.428 169.632C119.194 172.642 117.536 175.382 115.454 177.853L120.312 190.474C121.623 193.87 122.202 196.958 122.047 199.737C121.97 202.516 121.315 204.986 120.081 207.147C118.924 209.386 117.344 211.277 115.339 212.821C113.334 214.442 111.136 215.793 108.745 216.874C106.355 217.954 103.849 218.726 101.227 219.189C98.6822 219.73 96.2531 220 93.9397 220C91.8577 220 89.7371 219.73 87.5779 219.189C85.4959 218.649 83.4524 217.916 81.4474 216.989C79.5196 216.14 77.7075 215.098 76.011 213.863C74.3145 212.705 72.8879 211.47 71.7312 210.158V195.453C72.8108 197.074 74.1217 198.579 75.664 199.968C77.2062 201.435 78.9027 202.709 80.7534 203.789C82.6041 204.87 84.532 205.719 86.5369 206.337C88.5418 206.954 90.5853 207.263 92.6674 207.263H92.8987C95.7519 207.263 98.4509 206.839 100.996 205.989C103.54 205.14 105.661 203.944 107.357 202.4C109.054 200.933 110.211 199.081 110.827 196.842C111.522 194.681 111.406 192.249 110.48 189.547L108.283 182.6C106.509 184.067 104.427 185.225 102.037 186.074C99.7232 186.923 97.2942 187.347 94.7494 187.347C90.9709 187.347 87.3851 186.653 83.9922 185.263C80.6763 183.796 77.7846 181.828 75.317 179.358C72.8493 176.811 70.883 173.877 69.4178 170.558C67.9527 167.161 67.2201 163.572 67.2201 159.789Z" fill="#FFF500"/>
<path d="M143.991 181.211H155.789C160.031 181.211 163.347 180.053 165.737 177.737C168.205 175.344 169.439 171.484 169.439 166.158C169.439 156.123 164.889 151.105 155.789 151.105H143.991V181.211ZM143.991 119.842V141.263H155.789C164.889 141.263 169.439 137.596 169.439 130.263C169.439 126.404 168.243 123.702 165.853 122.158C163.539 120.614 160.185 119.842 155.789 119.842H143.991ZM131.268 191.053V110H160.532C167.087 110 172.33 111.467 176.263 114.4C180.196 117.256 182.162 121.772 182.162 127.947C182.162 130.109 181.892 132.039 181.352 133.737C180.89 135.435 180.234 136.94 179.386 138.253C178.538 139.488 177.574 140.568 176.494 141.495C175.415 142.344 174.297 143.077 173.14 143.695C170.441 145.084 167.395 145.895 164.002 146.126C164.002 146.126 164.426 146.204 165.274 146.358C166.123 146.435 167.202 146.705 168.513 147.168C169.901 147.554 171.366 148.211 172.909 149.137C174.528 149.986 175.993 151.221 177.304 152.842C178.692 154.386 179.849 156.393 180.774 158.863C181.699 161.256 182.162 164.189 182.162 167.663C182.162 171.446 181.622 174.804 180.543 177.737C179.463 180.67 177.959 183.14 176.032 185.147C174.104 187.077 171.829 188.544 169.207 189.547C166.585 190.551 163.694 191.053 160.532 191.053H131.268Z" fill="#FFF500"/>
<path d="M239.295 154.463C238.986 152.611 238.254 150.989 237.097 149.6C235.94 148.211 234.552 147.053 232.933 146.126C231.391 145.123 229.656 144.389 227.728 143.926C225.877 143.463 223.988 143.232 222.06 143.232C220.518 143.232 218.898 143.425 217.202 143.811C214.657 144.351 212.382 145.393 210.377 146.937C208.45 148.404 206.83 150.179 205.519 152.263C204.285 154.27 203.437 156.47 202.975 158.863C202.589 161.256 202.705 163.649 203.322 166.042L239.295 154.463ZM246.813 180.979C245.502 182.832 243.767 184.491 241.608 185.958C239.526 187.425 237.213 188.66 234.668 189.663C232.2 190.589 229.656 191.284 227.034 191.747C224.412 192.288 221.983 192.558 219.747 192.558C215.274 192.558 211.071 191.786 207.139 190.242C203.283 188.621 199.967 186.382 197.191 183.526C194.415 180.67 192.333 177.235 190.945 173.221C189.557 169.207 189.133 164.807 189.673 160.021C190.135 156.007 191.253 152.34 193.027 149.021C194.801 145.702 197.037 142.846 199.736 140.453C202.435 138.06 205.519 136.207 208.989 134.895C212.537 133.505 216.315 132.811 220.325 132.811C223.409 132.811 226.648 133.235 230.041 134.084C233.434 134.933 236.557 136.361 239.41 138.368C242.264 140.298 244.577 142.884 246.351 146.126C248.201 149.291 249.088 153.189 249.011 157.821L204.478 172.874C206.329 176.116 208.912 178.509 212.228 180.053C215.544 181.519 218.975 182.253 222.523 182.253C224.759 182.253 227.072 181.982 229.463 181.442C231.853 180.825 234.205 179.975 236.519 178.895C238.832 177.814 240.991 176.54 242.996 175.074C245.001 173.53 246.659 171.87 247.97 170.095L246.813 180.979Z" fill="#424242"/>
<path d="M306.279 154.463C305.971 152.611 305.238 150.989 304.081 149.6C302.925 148.211 301.537 147.053 299.917 146.126C298.375 145.123 296.64 144.389 294.712 143.926C292.861 143.463 290.972 143.232 289.044 143.232C287.502 143.232 285.883 143.425 284.186 143.811C281.642 144.351 279.367 145.393 277.362 146.937C275.434 148.404 273.815 150.179 272.504 152.263C271.27 154.27 270.422 156.47 269.959 158.863C269.573 161.256 269.689 163.649 270.306 166.042L306.279 154.463ZM313.798 180.979C312.487 182.832 310.752 184.491 308.593 185.958C306.51 187.425 304.197 188.66 301.652 189.663C299.185 190.589 296.64 191.284 294.018 191.747C291.396 192.288 288.967 192.558 286.731 192.558C282.258 192.558 278.056 191.786 274.123 190.242C270.267 188.621 266.952 186.382 264.175 183.526C261.399 180.67 259.317 177.235 257.929 173.221C256.541 169.207 256.117 164.807 256.657 160.021C257.12 156.007 258.238 152.34 260.011 149.021C261.785 145.702 264.021 142.846 266.72 140.453C269.419 138.06 272.504 136.207 275.974 134.895C279.521 133.505 283.299 132.811 287.309 132.811C290.394 132.811 293.633 133.235 297.026 134.084C300.419 134.933 303.542 136.361 306.395 138.368C309.248 140.298 311.561 142.884 313.335 146.126C315.186 149.291 316.073 153.189 315.995 157.821L271.463 172.874C273.313 176.116 275.897 178.509 279.212 180.053C282.528 181.519 285.96 182.253 289.507 182.253C291.743 182.253 294.057 181.982 296.447 181.442C298.838 180.825 301.19 179.975 303.503 178.895C305.816 177.814 307.976 176.54 309.981 175.074C311.986 173.53 313.643 171.87 314.954 170.095L313.798 180.979Z" fill="#424242"/>
</svg>
